Coordinates
version=1
nRows=8
nColumns=46
inDegrees=yes

Units are S.I. units (second, meters, Newtons, ...)
Angles are in degrees.

endheader
time	pelvis_tilt	pelvis_list	pelvis_rotation	pelvis_tx	pelvis_ty	pelvis_tz	bb_angle	bb_tx	bb_ty	bb_tz	hip_flexion_r	hip_adduction_r	hip_rotation_r	knee_angle_r	knee_angle_r_beta	ankle_angle_r	subtalar_angle_r	mtp_angle_r	crank_angle_r	hip_flexion_l	hip_adduction_l	hip_rotation_l	knee_angle_l	knee_angle_l_beta	ankle_angle_l	subtalar_angle_l	mtp_angle_l	crank_angle_l	lumbar_extension	lumbar_bending	lumbar_rotation	arm_flex_r	arm_add_r	arm_rot_r	elbow_flex_r	pro_sup_r	wrist_flex_r	wrist_dev_r	arm_flex_l	arm_add_l	arm_rot_l	elbow_flex_l	pro_sup_l	wrist_flex_l	wrist_dev_l
      2.50000000	    -23.39476517	     -3.69977508	     -6.83949143	      0.00964371	      1.00524427	     -0.22270297	      0.00000000	      0.50000000	      0.00000000	      0.25000000	     98.37318973	      3.97143871	      2.09090451	     98.00819030	      1.71056561	     24.30104455	     -9.86775350	      0.00000000	      0.00000000	     58.12965348	    -12.30955673	     -1.14086704	     48.24613962	      0.84205399	    -32.42582003	    -14.04454724	      0.00000000	      0.00000000	    -52.01298030	      6.35355988	      4.56778303	     89.68210576	     -1.07501174	     25.37139916	     61.77180568	     40.50678327	      0.00000000	      0.00000000	     89.20048534	    -39.96170259	     39.28241239	     66.49463837	     44.80456274	      0.00000000	      0.00000000
      2.50500000	    -23.37867767	     -3.58824493	     -6.74819966	      0.00981533	      1.00520565	     -0.22223019	      0.00000000	      0.50000000	      0.00000000	      0.25000000	     97.98321683	      4.03907198	      2.16962280	     96.93440400	      1.69182451	     24.25607748	    -10.33938651	      0.00000000	      0.00000000	     58.38482800	    -12.12662047	     -0.87320857	     49.44931966	      0.86305344	    -31.81379119	    -14.42778893	      0.00000000	      0.00000000	    -52.31569920	      6.37481668	      4.37093206	     89.68067337	     -0.96926522	     25.23970905	     62.58921404	     40.70991841	      0.00000000	      0.00000000	     89.14044570	    -40.35210183	     38.40756090	     67.22630694	     44.82870965	      0.00000000	      0.00000000
      2.51000000	    -23.36308929	     -3.43184366	     -6.59285094	      0.01005603	      1.00526850	     -0.22174429	      0.00000000	      0.50000000	      0.00000000	      0.25000000	     97.58839502	      4.02523094	      2.32440843	     95.87228310	      1.67328700	     24.21658050	    -10.56331302	      0.00000000	      0.00000000	     58.60731912	    -11.88406689	     -0.56657382	     50.62195094	      0.88351972	    -30.71714665	    -14.05075600	      0.00000000	      0.00000000	    -52.57339563	      6.43020502	      3.81592843	     89.68268333	     -0.60393045	     25.39616611	     63.10088420	     40.05790132	      0.00000000	      0.00000000	     89.16901976	    -41.85231238	     39.08276996	     68.56007781	     44.84775429	      0.00000000	      0.00000000
      2.51500000	    -23.33351626	     -3.26402756	     -6.40643032	      0.01032298	      1.00536672	     -0.22137013	      0.00000000	      0.50000000	      0.00000000	      0.25000000	     97.17799771	      3.95666678	      2.49463310	     94.82314447	      1.65497608	     24.11850036	    -10.72272679	      0.00000000	      0.00000000	     58.78422178	    -11.60560279	     -0.34339270	     51.73568049	      0.90295797	    -29.78728300	    -14.09148525	      0.00000000	      0.00000000	    -52.82447976	      6.46482210	      3.50124992	     89.68273115	     -0.53745245	     25.47495214	     63.69897425	     40.22997308	      0.00000000	      0.00000000	     89.13822056	    -42.24621361	     38.62781595	     69.06844399	     44.90572372	      0.00000000	      0.00000000
      2.52000000	    -23.19676718	     -3.12016276	     -6.21241529	      0.01054727	      1.00553970	     -0.22096430	      0.00000000	      0.50000000	      0.00000000	      0.25000000	     96.65326948	      3.86480307	      2.62778665	     93.75554510	      1.63634295	     23.91197638	    -10.97849924	      0.00000000	      0.00000000	     58.88424626	    -11.36333626	     -0.19864209	     52.92230341	      0.92366844	    -28.84967259	    -14.22475322	      0.00000000	      0.00000000	    -53.25627229	      6.51801140	      3.31719912	     89.68049478	     -0.53254318	     25.27572343	     64.54347832	     40.45802608	      0.00000000	      0.00000000	     89.09387957	    -42.36706149	     37.76499969	     69.46552213	     44.88610263	      0.00000000	      0.00000000
      2.52500000	    -23.25182455	     -2.85768693	     -5.88965397	      0.01099699	      1.00529405	     -0.22068485	      0.00000000	      0.50000000	      0.00000000	      0.25000000	     96.38793860	      3.60571750	      2.84481739	     92.82992627	      1.62018786	     23.77181088	    -11.19187567	      0.00000000	      0.00000000	     59.11249176	    -10.94396876	     -0.01525125	     53.96529807	      0.94187213	    -27.79204881	    -14.13704942	      0.00000000	      0.00000000	    -53.32813833	      6.59003526	      2.75767416	     89.68025022	     -0.51573096	     25.61759651	     64.99982340	     40.58959368	      0.00000000	      0.00000000	     89.09712977	    -43.16959002	     37.85027766	     70.28493225	     44.99312937	      0.00000000	      0.00000000
      2.53000000	    -23.23413372	     -2.66003191	     -5.60025750	      0.01143019	      1.00531900	     -0.22028915	      0.00000000	      0.50000000	      0.00000000	      0.25000000	     96.00320144	      3.37576228	      3.00461491	     91.85470774	      1.60316708	     23.53935760	    -11.17425811	      0.00000000	      0.00000000	     59.25377510	    -10.61363293	      0.10555282	     55.00328142	      0.95998836	    -26.78503372	    -14.17734944	      0.00000000	      0.00000000	    -53.55782833	      6.66341972	      2.50921526	     89.67650332	     -0.54759069	     25.53732963	     65.70684453	     40.73751977	      0.00000000	      0.00000000	     89.07425037	    -43.41168469	     37.44393726	     70.65133309	     45.00974675	      0.00000000	      0.00000000
      2.53500000	    -23.31451676	     -2.46655853	     -5.30342243	      0.01193536	      1.00522442	     -0.22016973	      0.00000000	      0.50000000	      0.00000000	      0.25000000	     95.68519205	      3.10691734	      3.15808918	     90.83615846	      1.58539004	     23.31101401	    -11.24218600	      0.00000000	      0.00000000	     59.48581747	    -10.27783879	      0.27214309	     56.04248554	      0.97812589	    -25.47555834	    -13.73872451	      0.00000000	      0.00000000	    -53.70096099	      6.78438657	      1.98317270	     89.67507529	     -0.51674033	     25.78303659	     66.36069200	     40.33870913	      0.00000000	      0.00000000	     89.06809536	    -44.41498648	     37.66985444	     71.72296994	     45.22626883	      0.00000000	      0.00000000
